<?xml version="1.0" encoding="utf-8"?>
<!DOCTYPE svg PUBLIC "-//W3C//DTD SVG 1.1//EN" "http://www.w3.org/Graphics/SVG/1.1/DTD/svg11.dtd">
<svg  version="1.1" id="Layer_1" xmlns="http://www.w3.org/2000/svg" xmlns:xlink="http://www.w3.org/1999/xlink" width="156" height="167.34" viewBox="0 0 156 167.34"
	 overflow="visible" enable-background="new 0 0 156 167.34" xml:space="preserve">
<text transform="matrix(1 0 0 1 0 35.9443)" font-family="Times" font-style="normal" font-size="24">0</text>
<text transform="matrix(1 0 0 1 0 143.0513)" font-family="Times" font-style="normal" font-size="24">1</text>
<text transform="matrix(1 0 0 1 144 35.9443)" font-family="Times" font-style="normal" font-size="24">0</text>
<text transform="matrix(1 0 0 1 144 143.0513)" font-family="Times" font-style="normal" font-size="24">1</text>
<text transform="matrix(1 0 0 1 54 19.9438)"><tspan x="0" y="0" font-family="Times" font-style="normal" font-size="24">1 – </tspan><tspan x="36" y="0" font-family="Times" font-style="italic" font-size="24">p</tspan></text>
<text transform="matrix(1 0 0 1 54 157.0513)"><tspan x="0" y="0" font-family="Times" font-style="normal" font-size="24">1 – </tspan><tspan x="36" y="0" font-family="Times" font-style="italic" font-size="24">p</tspan></text>
<text transform="matrix(1 0 0 1 47.0117 67.3862)" font-family="Times" font-style="italic" font-size="24">p</text>
<text transform="matrix(1 0 0 1 144.6738 89.9438)" font-family="Times" font-style="italic" font-size="24">e</text>
<text transform="matrix(1 0 0 1 47.0107 107.0732)" font-family="Times" font-style="italic" font-size="24">p</text>
<g>
	<line fill="none" stroke="#000000" x1="15" y1="28.944" x2="131.999" y2="28.944"/>
	<path d="M134.361,27.919c-1.654-0.5-2.729-0.959-4.055-1.492v5.044c0.475-0.226,2.4-0.993,4.055-1.492
		c1.77-0.535,3.373-0.9,4.414-1.031C137.734,28.819,136.131,28.454,134.361,27.919z"/>
</g>
<g>
	<line fill="none" stroke="#000000" x1="15" y1="136.944" x2="131.999" y2="136.944"/>
	<path d="M134.361,135.919c-1.654-0.5-2.729-0.959-4.055-1.492v5.044c0.475-0.226,2.4-0.993,4.055-1.492
		c1.77-0.535,3.373-0.9,4.414-1.031C137.734,136.819,136.131,136.454,134.361,135.919z"/>
</g>
<g>
	<line fill="none" stroke="#000000" x1="15" y1="37.944" x2="131.999" y2="77.944"/>
	<path d="M134.565,77.738c-1.403-1.008-2.271-1.791-3.354-2.723l-1.632,4.773c0.521-0.06,2.593-0.163,4.318-0.1
		c1.848,0.066,3.484,0.239,4.511,0.453C137.467,79.681,136.067,78.816,134.565,77.738z"/>
</g>
<g>
	<line fill="none" stroke="#000000" x1="15" y1="127.944" x2="131.999" y2="86.944"/>
	<path d="M133.889,85.195c-1.726,0.076-2.892-0.003-4.319-0.067l1.669,4.761c0.373-0.37,1.938-1.731,3.332-2.749
		c1.493-1.09,2.887-1.966,3.825-2.433C137.371,84.929,135.735,85.114,133.889,85.195z"/>
</g>
</svg>
